<?xml version="1.0" standalone="no"?>
<!DOCTYPE svg PUBLIC "-//W3C//DTD SVG 20010904//EN"
 "http://www.w3.org/TR/2001/REC-SVG-20010904/DTD/svg10.dtd">
<svg version="1.0" xmlns="http://www.w3.org/2000/svg"
 width="700.000000pt" height="700.000000pt" viewBox="0 0 700.000000 700.000000"
 preserveAspectRatio="xMidYMid meet">
<metadata>
Created by potrace 1.14, written by Peter Selinger 2001-2017
</metadata>
<g transform="translate(0.000000,700.000000) scale(0.100000,-0.100000)"
fill="#000000" stroke="none">
<path d="M3145 6545 c-804 -83 -1516 -406 -2030 -920 -142 -142 -228 -247
-335 -408 -181 -271 -340 -662 -340 -831 1 -213 145 -393 347 -436 32 -7 932
-9 2743 -8 l2695 3 59 24 c76 31 192 139 229 214 56 116 61 214 17 369 -118
422 -386 845 -735 1161 -496 448 -1117 725 -1845 822 -170 23 -629 29 -805 10z
m433 -651 c76 -38 118 -91 131 -168 19 -106 -20 -186 -114 -231 -49 -24 -63
-27 -113 -21 -79 9 -122 33 -159 89 -80 120 -34 270 101 333 65 30 90 30 154
-2z m-1714 -459 c64 -42 82 -71 97 -150 14 -78 -2 -129 -60 -186 -57 -58 -108
-74 -186 -60 -74 14 -106 32 -138 79 -67 96 -61 195 16 280 85 92 170 104 271
37z m3500 0 c64 -42 82 -71 97 -150 14 -78 -2 -129 -60 -186 -57 -58 -108 -74
-186 -60 -74 14 -106 32 -138 79 -67 96 -61 195 16 280 85 92 170 104 271 37z"/>
<path d="M735 3484 c-185 -39 -362 -177 -444 -346 -128 -265 -82 -548 124
-753 92 -93 181 -145 301 -175 76 -20 123 -20 2784 -20 2661 0 2708 0 2784 20
121 31 209 82 302 175 63 63 90 100 123 166 178 361 1 787 -382 916 l-82 28
-2720 2 c-2365 1 -2729 0 -2790 -13z"/>
<path d="M559 1723 c-35 -18 -64 -43 -84 -71 l-30 -44 -3 -190 c-3 -146 1
-210 13 -270 71 -353 340 -622 690 -692 72 -15 301 -16 2390 -14 l2310 3 70
22 c323 101 532 315 622 637 14 49 17 105 18 283 l0 221 -30 44 c-20 28 -49
52 -84 71 l-55 27 -2886 0 -2886 0 -55 -27z"/>
</g>
</svg>
