<?xml version="1.0" standalone="no"?>
<!DOCTYPE svg PUBLIC "-//W3C//DTD SVG 20010904//EN"
 "http://www.w3.org/TR/2001/REC-SVG-20010904/DTD/svg10.dtd">
<svg version="1.0" xmlns="http://www.w3.org/2000/svg"
 width="700.000000pt" height="700.000000pt" viewBox="0 0 700.000000 700.000000"
 preserveAspectRatio="xMidYMid meet">
<metadata>
Created by potrace 1.14, written by Peter Selinger 2001-2017
</metadata>
<g transform="translate(0.000000,700.000000) scale(0.100000,-0.100000)"
fill="#000000" stroke="none">
<path d="M3457 6564 c-1 -1 -69 -5 -152 -8 -82 -4 -168 -8 -190 -11 -113 -11
-250 -29 -302 -39 -11 -3 -37 -7 -56 -10 -237 -38 -561 -131 -827 -238 -240
-97 -573 -276 -745 -400 -72 -52 -215 -160 -230 -175 -11 -10 -50 -43 -85 -74
-152 -132 -304 -296 -418 -450 -187 -254 -234 -374 -228 -579 3 -108 4 -113
32 -209 59 -203 236 -376 434 -421 43 -10 635 -13 2810 -13 2530 1 2761 2
2825 17 164 39 316 172 390 341 48 106 65 200 61 325 -5 180 -45 280 -188 483
-361 508 -919 925 -1588 1184 -197 76 -497 162 -695 198 -55 10 -144 25 -180
30 -22 4 -47 8 -55 10 -8 2 -49 7 -90 10 -41 4 -88 9 -105 11 -55 7 -413 22
-418 18z m134 -679 c47 -24 87 -63 107 -104 22 -46 21 -146 -2 -190 -55 -104
-179 -149 -285 -101 -128 59 -168 215 -84 328 61 81 177 111 264 67z m-1770
-430 c178 -63 197 -309 31 -395 -58 -31 -111 -35 -169 -16 -89 30 -142 99
-148 195 -5 68 16 121 68 169 61 59 138 75 218 47z m3502 0 c81 -34 147 -124
147 -200 0 -78 -53 -164 -125 -201 -145 -75 -329 52 -311 214 8 64 23 97 65
136 63 61 153 81 224 51z"/>
<path d="M502 3481 c-184 -46 -349 -177 -429 -341 -55 -114 -74 -199 -69 -325
7 -174 64 -303 191 -430 90 -90 176 -141 292 -174 89 -24 -206 -22 3219 -22
2943 0 2755 -4 2888 48 116 46 264 178 323 288 58 110 77 187 77 310 0 61 -3
125 -7 143 -27 122 -89 235 -182 327 -79 79 -150 124 -257 163 l-73 27 -2950
2 c-2814 2 -2953 1 -3023 -16z"/>
<path d="M342 1724 c-110 -54 -126 -104 -120 -365 5 -221 20 -295 89 -432 52
-104 84 -149 162 -228 142 -144 319 -230 522 -255 74 -9 4858 -11 4972 -3 341
26 620 230 752 549 44 107 59 208 61 401 1 158 -2 185 -19 224 -22 49 -40 70
-91 106 l-35 24 -3120 3 -3121 2 -52 -26z"/>
</g>
</svg>
